#N canvas -1454 -39 717 536 12;
#X obj 120 145 osc~;
#X obj 85 81 mtof;
#X obj 85 105 sig~;
#X floatatom 41 34 5 0 0 0 - - -;
#X obj 240 145 osc~;
#X obj 205 81 mtof;
#X obj 205 105 sig~;
#X floatatom 161 34 5 0 0 0 - - -;
#X obj 350 145 osc~;
#X obj 315 81 mtof;
#X obj 315 105 sig~;
#X floatatom 271 34 5 0 0 0 - - -;
#X obj 460 145 osc~;
#X obj 425 81 mtof;
#X obj 425 105 sig~;
#X floatatom 381 34 5 0 0 0 - - -;
#X obj 570 145 osc~;
#X obj 535 81 mtof;
#X obj 535 105 sig~;
#X floatatom 491 34 5 0 0 0 - - -;
#X obj 460 289 *~;
#X obj 240 289 *~;
#X obj 570 289 *~;
#X obj 350 289 *~;
#X obj 588 207 osc~ 0.02;
#X obj 120 289 *~;
#X obj 138 207 osc~ 0.01;
#X obj 41 394 *~ 0.9;
#X obj 41 478 dac~ 1;
#X obj 41 436 hip~ 3;
#X obj 111 394 *~ 0.9;
#X obj 111 436 hip~ 3;
#X obj 111 478 dac~ 2;
#N canvas 0 22 450 300 tanh~ 0;
#X obj 12 12 inlet~;
#X obj 27 64 *~;
#X obj 12 192 outlet~;
#X obj 27 140 /~;
#X obj 12 166 *~;
#X text 92 42 // http://www.musicdsp.org/showone.php?id=238;
#X text 92 62 // y = x * (27 + x^2) / (27 + 9*x^2);
#X obj 27 90 +~ 27;
#X obj 67 116 +~ 27;
#X text 92 22 // pade-approximation of tanh function;
#X obj 12 38 clip~ -3 3;
#X obj 67 90 *~ 9;
#X connect 0 0 10 0;
#X connect 1 0 7 0;
#X connect 1 0 11 0;
#X connect 3 0 4 1;
#X connect 4 0 2 0;
#X connect 7 0 3 0;
#X connect 8 0 3 1;
#X connect 10 0 1 0;
#X connect 10 0 1 1;
#X connect 10 0 4 0;
#X connect 11 0 8 0;
#X restore 41 415 pd tanh~;
#N canvas 0 22 450 300 tanh~ 0;
#X obj 12 12 inlet~;
#X obj 27 64 *~;
#X obj 12 192 outlet~;
#X obj 27 140 /~;
#X obj 12 166 *~;
#X text 92 42 // http://www.musicdsp.org/showone.php?id=238;
#X text 92 62 // y = x * (27 + x^2) / (27 + 9*x^2);
#X obj 27 90 +~ 27;
#X obj 67 116 +~ 27;
#X text 92 22 // pade-approximation of tanh function;
#X obj 12 38 clip~ -3 3;
#X obj 67 90 *~ 9;
#X connect 0 0 10 0;
#X connect 1 0 7 0;
#X connect 1 0 11 0;
#X connect 3 0 4 1;
#X connect 4 0 2 0;
#X connect 7 0 3 0;
#X connect 8 0 3 1;
#X connect 10 0 1 0;
#X connect 10 0 1 1;
#X connect 10 0 4 0;
#X connect 11 0 8 0;
#X restore 111 415 pd tanh~;
#X obj 41 457 *~ 0.9;
#X obj 111 457 *~ 0.9;
#X obj 561 650 *;
#X obj 378 187 osc~ 0.002;
#X obj 258 231 *~ 0.4;
#X obj 478 231 *~ 0.5;
#X obj 350 333 throw~ \$0-server;
#X obj 41 353 catch~ \$0-server;
#X text 227 413 Osciladores afinados en concordancia con al porcentaje
de usuarios utilizando internet en Belize \, Costa Rica \, México
\, Panamá y Puerto Rico durante el año 2019;
#X connect 0 0 25 0;
#X connect 1 0 2 0;
#X connect 2 0 0 0;
#X connect 3 0 1 0;
#X connect 4 0 21 0;
#X connect 5 0 6 0;
#X connect 6 0 4 0;
#X connect 7 0 5 0;
#X connect 8 0 23 0;
#X connect 9 0 10 0;
#X connect 10 0 8 0;
#X connect 11 0 9 0;
#X connect 12 0 20 0;
#X connect 13 0 14 0;
#X connect 14 0 12 0;
#X connect 15 0 13 0;
#X connect 16 0 22 0;
#X connect 17 0 18 0;
#X connect 18 0 16 0;
#X connect 19 0 17 0;
#X connect 20 0 41 0;
#X connect 21 0 41 0;
#X connect 22 0 41 0;
#X connect 23 0 41 0;
#X connect 24 0 22 1;
#X connect 24 0 23 1;
#X connect 25 0 41 0;
#X connect 26 0 25 1;
#X connect 27 0 33 0;
#X connect 29 0 35 0;
#X connect 30 0 34 0;
#X connect 31 0 36 0;
#X connect 33 0 29 0;
#X connect 34 0 31 0;
#X connect 35 0 28 0;
#X connect 36 0 32 0;
#X connect 38 0 39 0;
#X connect 38 0 40 0;
#X connect 39 0 21 1;
#X connect 40 0 20 1;
#X connect 42 0 27 0;
#X connect 42 0 30 0;
